<svg style="object-fit:cover" id="my-svg" version="1" baseProfile="full" width="100%" height="100%" viewBox="0 0 1920 969" xmlns="http://www.w3.org/2000/svg"><rect width="1920" height="969" fill="#ffffff"/><path transform="scale(-1, 1)" d="M 0,969 V 0,678 C 148.14285714285717,518.25 296.28571428571433,358.5 468,425 C 639.7142857142857,491.5 835.0000000000002,784.25 998,908 C 1160.9999999999998,1031.75 1291.7142857142858,986.5000000000001 1440,920 C 1588.2857142857142,853.4999999999999 1754.142857142857,765.75 1920,678 C 1920,678 1920,969 1920,969 Z" stroke="none" stroke-width="0" fill="#f5df4d90" class="transition-all duration-300 ease-in-out delay-150" style="transform-origin: center center;"/><path transform="scale(-1, 1)" d="M 0,969 V 0,1017 C 182.03571428571428,1091.8214285714284 364.07142857142856,1166.642857142857 501,1075 C 637.9285714285714,983.3571428571429 729.75,725.25 884,773 C 1038.25,820.75 1254.9285714285713,1174.357142857143 1438,1266 C 1621.0714285714287,1357.642857142857 1770.5357142857142,1187.3214285714284 1920,1017 C 1920,1017 1920,969 1920,969 Z" stroke="none" stroke-width="0" fill="#f5df4dff" class="transition-all duration-300 ease-in-out delay-150" style="transform-origin: center center;"/></svg>