<svg style="object-fit:cover" id="my-svg" version="1" baseProfile="full" width="100%" height="100%" viewBox="0 0 1920 969" xmlns="http://www.w3.org/2000/svg"><rect width="1920" height="969" fill="#ffffff"/><path transform="scale(-1, 1)" d="M 0,969 V 0,678 C 131.5,600.4285714285714 263,522.8571428571429 438,582 C 613,641.1428571428571 831.5,836.9999999999999 986,907 C 1140.5,977.0000000000001 1231,921.1428571428572 1376,862 C 1521,802.8571428571428 1720.5,740.4285714285713 1920,678 C 1920,678 1920,969 1920,969 Z" stroke="none" stroke-width="0" fill="#f5df4d90" class="transition-all duration-300 ease-in-out delay-150" style="transform-origin: center center;"/><path transform="scale(-1, 1)" d="M 0,969 V 0,1017 C 190.07142857142856,985.4285714285714 380.1428571428571,953.8571428571429 536,947 C 691.8571428571429,940.1428571428571 813.5,958 962,918 C 1110.5,878 1285.857142857143,780.1428571428572 1450,787 C 1614.142857142857,793.8571428571428 1767.0714285714284,905.4285714285713 1920,1017 C 1920,1017 1920,969 1920,969 Z" stroke="none" stroke-width="0" fill="#f5df4dff" class="transition-all duration-300 ease-in-out delay-150" style="transform-origin: center center;"/></svg>