<svg style="object-fit:cover" id="my-svg" version="1" baseProfile="full" width="100%" height="100%" viewBox="0 0 1920 969" xmlns="http://www.w3.org/2000/svg"><rect width="1920" height="969" fill="#ffffff"/><path transform="scale(-1, 1)" d="M 0,969 V 0,678 C 197.28571428571428,661.5714285714286 394.57142857142856,645.1428571428571 548,604 C 701.4285714285714,562.8571428571429 811,496.9999999999999 942,578 C 1073,659.0000000000001 1225.4285714285716,886.8571428571429 1392,928 C 1558.5714285714284,969.1428571428571 1739.2857142857142,823.5714285714286 1920,678 C 1920,678 1920,969 1920,969 Z" stroke="none" stroke-width="0" fill="#f5df4d90" class="transition-all duration-300 ease-in-out delay-150" style="transform-origin: center center;"/><path transform="scale(-1, 1)" d="M 0,969 V 0,1017 C 155.35714285714283,950.9285714285714 310.71428571428567,884.8571428571429 459,906 C 607.2857142857143,927.1428571428571 748.5,1035.5 896,1007 C 1043.5,978.5000000000001 1197.2857142857144,813.1428571428572 1369,792 C 1540.7142857142856,770.8571428571428 1730.3571428571427,893.9285714285713 1920,1017 C 1920,1017 1920,969 1920,969 Z" stroke="none" stroke-width="0" fill="#f5df4dff" class="transition-all duration-300 ease-in-out delay-150" style="transform-origin: center center;"/></svg>