<svg style="object-fit:cover" id="my-svg" version="1" baseProfile="full" width="100%" height="100%" viewBox="0 0 1920 969" xmlns="http://www.w3.org/2000/svg"><rect width="1920" height="969" fill="#ffffff"/><path transform="scale(1, 1)" d="M 0,969 V 0,678 C 190.5,717 381,756 529,813 C 677,870 782.5,945 952,861 C 1121.5,777 1355,534 1527,477 C 1699,420.00000000000006 1809.5,549 1920,678 C 1920,678 1920,969 1920,969 Z" stroke="none" stroke-width="0" fill="#f5df4d90" class="transition-all duration-300 ease-in-out delay-150" style="transform-origin: center center;"/><path transform="scale(1, 1)" d="M 0,969 V 0,1017 C 127.17857142857144,974.6071428571429 254.3571428571429,932.2142857142857 436,878 C 617.6428571428571,823.7857142857143 853.75,757.75 1005,837 C 1156.25,916.25 1222.6428571428573,1140.7857142857142 1361,1195 C 1499.3571428571427,1249.2142857142858 1709.6785714285713,1133.107142857143 1920,1017 C 1920,1017 1920,969 1920,969 Z" stroke="none" stroke-width="0" fill="#f5df4dff" class="transition-all duration-300 ease-in-out delay-150" style="transform-origin: center center;"/></svg>