<svg style="object-fit:cover" id="my-svg" version="1" baseProfile="full" width="100%" height="100%" viewBox="0 0 1920 969" xmlns="http://www.w3.org/2000/svg"><rect width="1920" height="969" fill="#ffffff"/><path transform="scale(-1, 1)" d="M 0,969 V 0,678 C 160.5,777.6428571428571 321,877.2857142857143 496,930 C 671,982.7142857142857 860.5,988.4999999999999 998,916 C 1135.5,843.5000000000001 1221,692.7142857142858 1366,640 C 1511,587.2857142857142 1715.5,632.6428571428571 1920,678 C 1920,678 1920,969 1920,969 Z" stroke="none" stroke-width="0" fill="#f5df4d90" class="transition-all duration-300 ease-in-out delay-150" style="transform-origin: center center;"/><path transform="scale(-1, 1)" d="M 0,969 V 0,1017 C 179.17857142857144,1039.4642857142858 358.3571428571429,1061.9285714285716 499,1020 C 639.6428571428571,978.0714285714286 741.75,871.7499999999999 900,816 C 1058.25,760.2500000000001 1272.642857142857,755.0714285714287 1452,797 C 1631.357142857143,838.9285714285713 1775.6785714285716,927.9642857142857 1920,1017 C 1920,1017 1920,969 1920,969 Z" stroke="none" stroke-width="0" fill="#f5df4dff" class="transition-all duration-300 ease-in-out delay-150" style="transform-origin: center center;"/></svg>