<svg style="object-fit:cover" id="my-svg" version="1" baseProfile="full" width="100%" height="100%" viewBox="0 0 1920 969" xmlns="http://www.w3.org/2000/svg"><rect width="1920" height="969" fill="#ffffff"/><path transform="scale(-1, 1)" d="M 0,969 V 0,678 C 118.35714285714283,552.8571428571429 236.71428571428567,427.7142857142857 415,425 C 593.2857142857143,422.2857142857143 831.5,542 997,661 C 1162.5,780 1255.2857142857142,898.2857142857143 1397,901 C 1538.7142857142858,903.7142857142857 1729.357142857143,790.8571428571429 1920,678 C 1920,678 1920,969 1920,969 Z" stroke="none" stroke-width="0" fill="#f5df4d90" class="transition-all duration-300 ease-in-out delay-150" style="transform-origin: center center;"/><path transform="scale(-1, 1)" d="M 0,969 V 0,1017 C 194.07142857142856,894.25 388.1428571428571,771.5 529,791 C 669.8571428571429,810.5 757.4999999999998,972.25 907,971 C 1056.5000000000002,969.75 1267.857142857143,805.5000000000001 1447,786 C 1626.142857142857,766.4999999999999 1773.0714285714284,891.75 1920,1017 C 1920,1017 1920,969 1920,969 Z" stroke="none" stroke-width="0" fill="#f5df4dff" class="transition-all duration-300 ease-in-out delay-150" style="transform-origin: center center;"/></svg>