<svg style="object-fit:cover" id="my-svg" version="1" baseProfile="full" width="100%" height="100%" viewBox="0 0 1920 969" xmlns="http://www.w3.org/2000/svg"><rect width="1920" height="969" fill="#ffffff"/><path transform="scale(-1, 1)" d="M 0,969 V 0,678 C 196.57142857142856,585.3214285714286 393.1428571428571,492.6428571428571 534,536 C 674.8571428571429,579.3571428571429 760,758.75 907,846 C 1054,933.25 1262.857142857143,928.3571428571429 1442,885 C 1621.142857142857,841.6428571428571 1770.5714285714284,759.8214285714286 1920,678 C 1920,678 1920,969 1920,969 Z" stroke="none" stroke-width="0" fill="#f5df4d90" class="transition-all duration-300 ease-in-out delay-150" style="transform-origin: center center;"/><path transform="scale(-1, 1)" d="M 0,969 V 0,1017 C 124.39285714285717,962.6785714285714 248.78571428571433,908.3571428571429 408,899 C 567.2142857142857,889.6428571428571 761.25,925.2500000000002 950,918 C 1138.75,910.7499999999998 1322.2142857142858,860.6428571428571 1483,870 C 1643.7857142857142,879.3571428571429 1781.892857142857,948.1785714285714 1920,1017 C 1920,1017 1920,969 1920,969 Z" stroke="none" stroke-width="0" fill="#f5df4dff" class="transition-all duration-300 ease-in-out delay-150" style="transform-origin: center center;"/></svg>